<?xml version="1.0" encoding="UTF-8" standalone="no"?>
<!-- Created with Inkscape (http://www.inkscape.org/) -->

<svg
   xmlns:dc="http://purl.org/dc/elements/1.1/"
   xmlns:cc="http://creativecommons.org/ns#"
   xmlns:rdf="http://www.w3.org/1999/02/22-rdf-syntax-ns#"
   xmlns:svg="http://www.w3.org/2000/svg"
   xmlns="http://www.w3.org/2000/svg"
   xmlns:xlink="http://www.w3.org/1999/xlink"
   xmlns:sodipodi="http://sodipodi.sourceforge.net/DTD/sodipodi-0.dtd"
   xmlns:inkscape="http://www.inkscape.org/namespaces/inkscape"
   width="128"
   height="128"
   id="svg2"
   version="1.1"
   inkscape:version="0.47 r22583"
   sodipodi:docname="boat_roll.svg">
  <defs
     id="defs4">
    <linearGradient
       id="linearGradient3693">
      <stop
         style="stop-color:#bfbfbf;stop-opacity:1;"
         offset="0"
         id="stop3695" />
      <stop
         style="stop-color:#ffffff;stop-opacity:1;"
         offset="1"
         id="stop3697" />
    </linearGradient>
    <linearGradient
       id="linearGradient3673">
      <stop
         style="stop-color:#ffffff;stop-opacity:1;"
         offset="0"
         id="stop3675" />
      <stop
         id="stop3683"
         offset="0.40815243"
         style="stop-color:#d8d8d8;stop-opacity:1;" />
      <stop
         id="stop3681"
         offset="0.55930716"
         style="stop-color:#b1b1b1;stop-opacity:1;" />
      <stop
         style="stop-color:#828282;stop-opacity:1;"
         offset="1"
         id="stop3677" />
    </linearGradient>
    <inkscape:perspective
       sodipodi:type="inkscape:persp3d"
       inkscape:vp_x="0 : 526.18109 : 1"
       inkscape:vp_y="0 : 1000 : 0"
       inkscape:vp_z="744.09448 : 526.18109 : 1"
       inkscape:persp3d-origin="372.04724 : 350.78739 : 1"
       id="perspective10" />
    <inkscape:perspective
       id="perspective3628"
       inkscape:persp3d-origin="0.5 : 0.33333333 : 1"
       inkscape:vp_z="1 : 0.5 : 1"
       inkscape:vp_y="0 : 1000 : 0"
       inkscape:vp_x="0 : 0.5 : 1"
       sodipodi:type="inkscape:persp3d" />
    <inkscape:perspective
       id="perspective3650"
       inkscape:persp3d-origin="0.5 : 0.33333333 : 1"
       inkscape:vp_z="1 : 0.5 : 1"
       inkscape:vp_y="0 : 1000 : 0"
       inkscape:vp_x="0 : 0.5 : 1"
       sodipodi:type="inkscape:persp3d" />
    <linearGradient
       inkscape:collect="always"
       xlink:href="#linearGradient3673"
       id="linearGradient3679"
       x1="24.561916"
       y1="1001.9241"
       x2="100.43808"
       y2="1001.9241"
       gradientUnits="userSpaceOnUse" />
    <linearGradient
       inkscape:collect="always"
       xlink:href="#linearGradient3693"
       id="linearGradient3699"
       x1="65.334595"
       y1="961.79968"
       x2="62.5"
       y2="961.67468"
       gradientUnits="userSpaceOnUse" />
    <inkscape:perspective
       id="perspective3709"
       inkscape:persp3d-origin="0.5 : 0.33333333 : 1"
       inkscape:vp_z="1 : 0.5 : 1"
       inkscape:vp_y="0 : 1000 : 0"
       inkscape:vp_x="0 : 0.5 : 1"
       sodipodi:type="inkscape:persp3d" />
    <inkscape:perspective
       id="perspective3730"
       inkscape:persp3d-origin="0.5 : 0.33333333 : 1"
       inkscape:vp_z="1 : 0.5 : 1"
       inkscape:vp_y="0 : 1000 : 0"
       inkscape:vp_x="0 : 0.5 : 1"
       sodipodi:type="inkscape:persp3d" />
    <inkscape:perspective
       id="perspective3752"
       inkscape:persp3d-origin="0.5 : 0.33333333 : 1"
       inkscape:vp_z="1 : 0.5 : 1"
       inkscape:vp_y="0 : 1000 : 0"
       inkscape:vp_x="0 : 0.5 : 1"
       sodipodi:type="inkscape:persp3d" />
  </defs>
  <sodipodi:namedview
     id="base"
     pagecolor="#ffffff"
     bordercolor="#666666"
     borderopacity="1.0"
     inkscape:pageopacity="0.0"
     inkscape:pageshadow="2"
     inkscape:zoom="2"
     inkscape:cx="47.3454"
     inkscape:cy="54.86211"
     inkscape:document-units="px"
     inkscape:current-layer="layer1"
     showgrid="true"
     inkscape:window-width="1024"
     inkscape:window-height="576"
     inkscape:window-x="-1"
     inkscape:window-y="-3"
     inkscape:window-maximized="1">
    <inkscape:grid
       type="xygrid"
       id="grid2837"
       empspacing="5"
       visible="true"
       enabled="false"
       snapvisiblegridlinesonly="true" />
  </sodipodi:namedview>
  <metadata
     id="metadata7">
    <rdf:RDF>
      <cc:Work
         rdf:about="">
        <dc:format>image/svg+xml</dc:format>
        <dc:type
           rdf:resource="http://purl.org/dc/dcmitype/StillImage" />
        <dc:title></dc:title>
      </cc:Work>
    </rdf:RDF>
  </metadata>
  <g
     inkscape:label="Ebene 1"
     inkscape:groupmode="layer"
     id="layer1"
     transform="translate(0,-924.36218)">
    <rect
       style="color:#000000;fill:url(#linearGradient3699);fill-opacity:1;fill-rule:nonzero;stroke:#030303;stroke-width:0.66918348999999999px;stroke-linecap:butt;stroke-linejoin:miter;stroke-miterlimit:4;stroke-opacity:1;stroke-dasharray:none;stroke-dashoffset:0;marker:none;visibility:visible;display:inline;overflow:visible;enable-background:accumulate"
       id="rect3667"
       width="5"
       height="70"
       x="60"
       y="932.36218" />
    <path
       style="color:#000000;fill:url(#linearGradient3679);fill-opacity:1;fill-rule:nonzero;stroke:#000000;stroke-width:0.87616682000000001px;stroke-linecap:butt;stroke-linejoin:miter;stroke-miterlimit:4;stroke-opacity:1;stroke-dashoffset:0;marker:none;visibility:visible;display:inline;overflow:visible;enable-background:accumulate"
       d="m 25,1002.3622 c 20,0 55,0 75,0 0,30 -20,35 -20,35 l -35,0 c 0,0 -20,-5 -20,-35 z"
       id="rect2839"
       sodipodi:nodetypes="ccccc" />
    <path
       style="fill:#abd1ff;fill-opacity:1;stroke:#ffffff;color:#000000;fill-rule:nonzero;stroke-width:1;stroke-linecap:butt;stroke-linejoin:miter;stroke-miterlimit:4;stroke-opacity:1;stroke-dasharray:none;stroke-dashoffset:0;marker:none;visibility:visible;display:inline;overflow:visible;enable-background:accumulate"
       d="m -5,1027.3622 c 2.29397,-2.4745 6.27322,-3.3333 10,-3.3333 3.72678,0 6.27322,3.3333 10,3.3333 3.72678,0 6.27322,-3.3333 10,-3.3333 3.72678,0 6.27322,3.3333 10,3.3333 3.72678,0 6.27322,-3.3333 10,-3.3333 3.72678,0 6.27322,3.3333 10,3.3333 3.72678,0 6.27322,-3.3333 10,-3.3333 3.72678,0 6.27322,3.3333 10,3.3333 3.72678,0 6.27322,-3.3333 10,-3.3333 3.72678,0 6.27322,3.3333 10,3.3333 3.72678,0 6.27322,-3.3333 10,-3.3333 3.72678,0 6.27322,3.3333 10,3.3333 3.72678,0 6.27322,-3.3333 10,-3.3333 3.72678,0 7.70603,0.8588 10,3.3333 2.29397,2.4745 0,25 0,25 l -140,0 c 0,0 -2.29397,-22.5255 0,-25 z"
       id="path2843"
       sodipodi:nodetypes="czzzzzzzzzzzzzzccz" />
    <path
       style="fill:#abd1ff;fill-opacity:1;stroke:#ffffff;stroke-opacity:1"
       d="m -10,1032.3622 c 2.29397,-2.4745 6.27322,-3.3333 10,-3.3333 3.72678,0 6.27322,3.3333 10,3.3333 3.72678,0 6.27322,-3.3333 10,-3.3333 3.72678,0 6.27322,3.3333 10,3.3333 3.72678,0 6.27322,-3.3333 10,-3.3333 3.72678,0 6.27322,3.3333 10,3.3333 3.72678,0 6.27322,-3.3333 10,-3.3333 3.72678,0 6.27322,3.3333 10,3.3333 3.72678,0 6.27322,-3.3333 10,-3.3333 3.72678,0 6.27322,3.3333 10,3.3333 3.72678,0 6.27322,-3.3333 10,-3.3333 3.72678,0 6.27322,3.3333 10,3.3333 3.72678,0 6.27322,-3.3333 10,-3.3333 3.72678,0 7.70603,0.8588 10,3.3333 2.29397,2.4745 0,25 0,25 l -140,0 c 0,0 -2.29397,-22.5255 0,-25 z"
       id="path2843-0"
       sodipodi:nodetypes="czzzzzzzzzzzzzzccz" />
    <path
       style="fill:#abd1ff;fill-opacity:1;stroke:#ffffff;stroke-opacity:1"
       d="m -8.25,1038.1122 c 2.29397,-2.4745 6.27322,-3.3333 10,-3.3333 3.72678,0 6.27322,3.3333 10,3.3333 3.72678,0 6.27322,-3.3333 10,-3.3333 3.72678,0 6.27322,3.3333 10,3.3333 3.72678,0 6.27322,-3.3333 10,-3.3333 3.72678,0 6.27322,3.3333 10,3.3333 3.72678,0 6.27322,-3.3333 10,-3.3333 3.72678,0 6.27322,3.3333 10,3.3333 3.72678,0 6.27322,-3.3333 10,-3.3333 3.72678,0 6.27322,3.3333 10,3.3333 3.72678,0 6.27322,-3.3333 10,-3.3333 3.72678,0 6.27322,3.3333 10,3.3333 3.72678,0 6.27322,-3.3333 10,-3.3333 3.72678,0 7.70603,0.8588 10,3.3333 2.29397,2.4745 0,25 0,25 l -140,0 c 0,0 -2.29397,-22.5255 0,-25 z"
       id="path2843-0-5"
       sodipodi:nodetypes="czzzzzzzzzzzzzzccz" />
    <path
       sodipodi:type="arc"
       style="color:#000000;fill:#989898;fill-opacity:1;fill-rule:nonzero;stroke:#030303;stroke-width:0.87616682000000001px;stroke-linecap:butt;stroke-linejoin:miter;stroke-miterlimit:4;stroke-opacity:1;stroke-dasharray:none;stroke-dashoffset:0;marker:none;visibility:visible;display:inline;overflow:visible;enable-background:accumulate"
       id="path3669"
       sodipodi:cx="62.5"
       sodipodi:cy="60.5"
       sodipodi:rx="2.5"
       sodipodi:ry="2.5"
       d="m 65,60.5 a 2.5,2.5 0 1 1 -5,0 2.5,2.5 0 1 1 5,0 z"
       transform="translate(0,926.86218)" />
    <path
       style="fill:#abd1ff;fill-opacity:1;stroke:#ffffff;stroke-opacity:1"
       d="m -4.9999988,1044.5288 c 2.29397,-2.4745 6.27322,-3.3333 9.9999998,-3.3333 3.72678,0 6.27322,3.3333 10,3.3333 3.72678,0 6.27322,-3.3333 10,-3.3333 3.72678,0 6.27322,3.3333 10,3.3333 3.72678,0 6.27322,-3.3333 10,-3.3333 3.72678,0 6.27322,3.3333 10,3.3333 3.72678,0 6.27322,-3.3333 10,-3.3333 3.72678,0 6.27322,3.3333 10,3.3333 3.72678,0 6.27322,-3.3333 10,-3.3333 3.72678,0 6.27322,3.3333 9.999998,3.3333 3.72678,0 6.273221,-3.3333 10.000001,-3.3333 3.72678,0 6.27322,3.3333 10,3.3333 3.72678,0 6.27322,-3.3333 10,-3.3333 3.72678,0 7.70603,0.8588 10,3.3333 2.29397,2.4745 0,25 0,25 l -139.9999988,0 c 0,0 -2.29397,-22.5255 0,-25 z"
       id="path2843-0-5-4"
       sodipodi:nodetypes="czzzzzzzzzzzzzzccz" />
    <path
       style="fill:#abd1ff;fill-opacity:1;stroke:#ffffff;stroke-opacity:1"
       d="m -7.999999,1049.5288 c 2.29397,-2.4745 6.27322,-3.3333 10,-3.3333 3.72678,0 6.27322,3.3333 10,3.3333 3.72678,0 6.27322,-3.3333 10,-3.3333 3.72678,0 6.27322,3.3333 10,3.3333 3.72678,0 6.27322,-3.3333 10,-3.3333 3.72678,0 6.27322,3.3333 10,3.3333 3.72678,0 6.27322,-3.3333 10,-3.3333 3.72678,0 6.27322,3.3333 10,3.3333 3.72678,0 6.27322,-3.3333 9.999999,-3.3333 3.72678,0 6.27322,3.3333 10,3.3333 3.72678,0 6.27322,-3.3333 10,-3.3333 3.72678,0 6.27322,3.3333 10,3.3333 3.72678,0 6.27322,-3.3333 10,-3.3333 3.72678,0 7.70603,0.8588 10,3.3333 2.29397,2.4745 0,25 0,25 l -139.999999,0 c 0,0 -2.29397,-22.5255 0,-25 z"
       id="path2843-0-5-4-2"
       sodipodi:nodetypes="czzzzzzzzzzzzzzccz" />
  </g>
</svg>
